<?xml version="1.0" encoding="UTF-8"?><svg id="a" xmlns="http://www.w3.org/2000/svg" width="400" height="338.6162" viewBox="0 0 400 338.6162"><g><g><path d="M239.5808,166.5173c-10.6273,3.5424-24.6838,5.4932-39.581,5.4932s-28.9537-1.9508-39.5806-5.4932c-7.4483-2.4826-12.0151-5.3269-14.743-8.1277v24.9445c2.0403,0,3.6938,1.6539,3.6938,3.6941,0,5.8771,19.7231,14.4139,50.6297,14.4139s50.6302-8.5368,50.6302-14.4139c0-2.0401,1.6535-3.6941,3.6938-3.6941v-24.9445c-2.7279,2.8008-7.2946,5.6451-14.743,8.1277Z" fill="#1274cc"/><path d="M149.3701,150.2086c0,5.8771,19.7231,14.4139,50.6297,14.4139s50.6302-8.5368,50.6302-14.4139c0-2.0401,1.6535-3.6941,3.6938-3.6941v-33.1254c0-10.0006-24.3216-18.1079-54.3238-18.1079s-54.3238,8.1073-54.3238,18.1079v33.1254c2.0403,0,3.6938,1.6539,3.6938,3.6941Zm19.9463-40.3575c8.6092-2.2492,19.5062-3.4882,30.6837-3.4882s22.0745,1.2389,30.6837,3.4882c4.5679,1.1936,7.743,2.4687,9.8387,3.5381-2.0955,1.0697-5.2707,2.3445-9.8387,3.5381-8.6092,2.2495-19.5062,3.4882-30.6837,3.4882s-22.0746-1.2387-30.6837-3.4882c-4.568-1.1936-7.7431-2.4684-9.8387-3.5381,2.0957-1.0694,5.2707-2.3445,9.8387-3.5381Z" fill="#1274cc"/><path d="M239.5808,203.3367c-10.6273,3.5425-24.6838,5.4935-39.581,5.4935s-28.9537-1.951-39.5806-5.4935c-7.4483-2.4826-12.0151-5.3269-14.743-8.1274v29.2418c0,10.0009,24.3215,18.108,54.3238,18.108s54.3238-8.1071,54.3238-18.108v-29.2418c-2.7279,2.8005-7.2946,5.6448-14.743,8.1274Z" fill="#1274cc"/></g><g><g><path d="M318.964,35.9253c-5.3595,1.7865-12.4484,2.7703-19.9612,2.7703s-14.6017-.9838-19.961-2.7703c-3.7563-1.252-6.0593-2.6864-7.4351-4.0989v12.5798c1.029,0,1.8629,.8341,1.8629,1.863,0,2.9639,9.9466,7.2691,25.5332,7.2691s25.5334-4.3052,25.5334-7.2691c0-1.0289,.8339-1.863,1.8628-1.863v-12.5798c-1.3757,1.4125-3.6788,2.8469-7.4351,4.0989Z" fill="#1274cc"/><path d="M273.4696,27.7006c0,2.9639,9.9466,7.2691,25.5332,7.2691s25.5334-4.3052,25.5334-7.2691c0-1.0289,.8339-1.863,1.8628-1.863V9.1321C326.3991,4.0886,314.1334,0,299.003,0s-27.3962,4.0886-27.3962,9.132V25.8376c1.029,0,1.8629,.8341,1.8629,1.863Zm10.0591-20.3528c4.3417-1.1343,9.8372-1.7591,15.4742-1.7591s11.1324,.6248,15.4742,1.7591c2.3037,.6019,3.9049,1.245,4.9618,1.7843-1.0568,.5394-2.6581,1.1824-4.9618,1.7843-4.3417,1.1344-9.8372,1.7591-15.4742,1.7591s-11.1325-.6247-15.4742-1.7591c-2.3037-.6019-3.905-1.2449-4.9618-1.7843,1.0569-.5393,2.6581-1.1824,4.9618-1.7843Z" fill="#1274cc"/><path d="M318.964,54.4938c-5.3595,1.7865-12.4484,2.7704-19.9612,2.7704s-14.6017-.9839-19.961-2.7704c-3.7563-1.252-6.0593-2.6864-7.4351-4.0988v14.747c0,5.0436,12.2656,9.1321,27.3962,9.1321s27.3962-4.0885,27.3962-9.1321v-14.747c-1.3757,1.4123-3.6788,2.8467-7.4351,4.0988Z" fill="#1274cc"/></g><g><path d="M392.5649,165.541c-5.3595,1.7865-12.4484,2.7703-19.9612,2.7703s-14.6017-.9838-19.961-2.7703c-3.7563-1.252-6.0593-2.6864-7.4351-4.0989v12.5798c1.029,0,1.8629,.8341,1.8629,1.863,0,2.9639,9.9466,7.2691,25.5332,7.2691s25.5334-4.3052,25.5334-7.2691c0-1.0289,.8339-1.863,1.8628-1.863v-12.5798c-1.3757,1.4125-3.6788,2.8469-7.4351,4.0989Z" fill="#1274cc"/><path d="M347.0705,157.3163c0,2.9639,9.9466,7.2691,25.5332,7.2691s25.5334-4.3052,25.5334-7.2691c0-1.0289,.8339-1.863,1.8628-1.863v-16.7055c0-5.0434-12.2657-9.132-27.3962-9.132s-27.3962,4.0886-27.3962,9.132v16.7055c1.029,0,1.8629,.8341,1.8629,1.863Zm10.0591-20.3528c4.3417-1.1343,9.8372-1.7591,15.4742-1.7591s11.1324,.6248,15.4742,1.7591c2.3037,.6019,3.9049,1.245,4.9618,1.7843-1.0568,.5394-2.6581,1.1824-4.9618,1.7843-4.3417,1.1344-9.8372,1.7591-15.4742,1.7591s-11.1325-.6247-15.4742-1.7591c-2.3037-.6019-3.905-1.2449-4.9618-1.7843,1.0569-.5393,2.6581-1.1824,4.9618-1.7843Z" fill="#1274cc"/><path d="M392.5649,184.1095c-5.3595,1.7865-12.4484,2.7704-19.9612,2.7704s-14.6017-.9839-19.961-2.7704c-3.7563-1.252-6.0593-2.6864-7.4351-4.0988v14.747c0,5.0436,12.2656,9.1321,27.3962,9.1321s27.3962-4.0885,27.3962-9.1321v-14.747c-1.3757,1.4123-3.6788,2.8467-7.4351,4.0988Z" fill="#1274cc"/></g><g><path d="M318.964,300.2674c-5.3595,1.7865-12.4484,2.7703-19.9612,2.7703s-14.6017-.9838-19.961-2.7703c-3.7563-1.252-6.0593-2.6864-7.4351-4.0989v12.5798c1.029,0,1.8629,.8341,1.8629,1.863,0,2.9639,9.9466,7.2691,25.5332,7.2691s25.5334-4.3052,25.5334-7.2691c0-1.0289,.8339-1.863,1.8628-1.863v-12.5798c-1.3757,1.4125-3.6788,2.8469-7.4351,4.0989Z" fill="#1274cc"/><path d="M273.4696,292.0427c0,2.9639,9.9466,7.2691,25.5332,7.2691s25.5334-4.3052,25.5334-7.2691c0-1.0289,.8339-1.863,1.8628-1.863v-16.7055c0-5.0434-12.2657-9.132-27.3962-9.132s-27.3962,4.0886-27.3962,9.132v16.7055c1.029,0,1.8629,.8341,1.8629,1.863Zm10.0591-20.3528c4.3417-1.1343,9.8372-1.7591,15.4742-1.7591s11.1324,.6248,15.4742,1.7591c2.3037,.6019,3.9049,1.245,4.9618,1.7843-1.0568,.5394-2.6581,1.1824-4.9618,1.7843-4.3417,1.1344-9.8372,1.7591-15.4742,1.7591s-11.1325-.6247-15.4742-1.7591c-2.3037-.6019-3.905-1.2449-4.9618-1.7843,1.0569-.5393,2.6581-1.1824,4.9618-1.7843Z" fill="#1274cc"/><path d="M318.964,318.8359c-5.3595,1.7865-12.4484,2.7704-19.9612,2.7704s-14.6017-.9839-19.961-2.7704c-3.7563-1.252-6.0593-2.6864-7.4351-4.0988v14.747c0,5.0436,12.2656,9.1321,27.3962,9.1321s27.3962-4.0885,27.3962-9.1321v-14.747c-1.3757,1.4123-3.6788,2.8467-7.4351,4.0988Z" fill="#1274cc"/></g></g><g><g><path d="M47.3572,165.541c-5.3595,1.7865-12.4484,2.7703-19.9612,2.7703s-14.6017-.9838-19.961-2.7703c-3.7563-1.252-6.0593-2.6864-7.4351-4.0989v12.5798c1.029,0,1.8629,.8341,1.8629,1.863,0,2.9639,9.9466,7.2691,25.5332,7.2691s25.5334-4.3052,25.5334-7.2691c0-1.0289,.8339-1.863,1.8628-1.863v-12.5798c-1.3757,1.4125-3.6788,2.8469-7.4351,4.0989Z" fill="#1274cc"/><path d="M1.8629,157.3163c0,2.9639,9.9466,7.2691,25.5332,7.2691s25.5334-4.3052,25.5334-7.2691c0-1.0289,.8339-1.863,1.8628-1.863v-16.7055c0-5.0434-12.2657-9.132-27.3962-9.132S0,133.7043,0,138.7478v16.7055c1.029,0,1.8629,.8341,1.8629,1.863Zm10.0591-20.3528c4.3417-1.1343,9.8372-1.7591,15.4742-1.7591s11.1324,.6248,15.4742,1.7591c2.3037,.6019,3.9049,1.245,4.9618,1.7843-1.0568,.5394-2.6581,1.1824-4.9618,1.7843-4.3417,1.1344-9.8372,1.7591-15.4742,1.7591s-11.1325-.6247-15.4742-1.7591c-2.3037-.6019-3.905-1.2449-4.9618-1.7843,1.0569-.5393,2.6581-1.1824,4.9618-1.7843Z" fill="#1274cc"/><path d="M47.3572,184.1095c-5.3595,1.7865-12.4484,2.7704-19.9612,2.7704s-14.6017-.9839-19.961-2.7704c-3.7563-1.252-6.0593-2.6864-7.4351-4.0988v14.747c0,5.0436,12.2656,9.1321,27.3962,9.1321s27.3962-4.0885,27.3962-9.1321v-14.747c-1.3757,1.4123-3.6788,2.8467-7.4351,4.0988Z" fill="#1274cc"/></g><g><path d="M116.8267,35.9253c-5.3595,1.7865-12.4484,2.7703-19.9612,2.7703s-14.6017-.9838-19.961-2.7703c-3.7563-1.252-6.0593-2.6864-7.4351-4.0989v12.5798c1.029,0,1.8629,.8341,1.8629,1.863,0,2.9639,9.9466,7.2691,25.5332,7.2691s25.5334-4.3052,25.5334-7.2691c0-1.0289,.8339-1.863,1.8628-1.863v-12.5798c-1.3757,1.4125-3.6788,2.8469-7.4351,4.0989Z" fill="#1274cc"/><path d="M71.3323,27.7006c0,2.9639,9.9466,7.2691,25.5332,7.2691s25.5334-4.3052,25.5334-7.2691c0-1.0289,.8339-1.863,1.8628-1.863V9.1321C124.2618,4.0886,111.9961,0,96.8656,0s-27.3962,4.0886-27.3962,9.132V25.8376c1.029,0,1.8629,.8341,1.8629,1.863Zm10.0591-20.3528c4.3417-1.1343,9.8372-1.7591,15.4742-1.7591s11.1324,.6248,15.4742,1.7591c2.3037,.6019,3.9049,1.245,4.9618,1.7843-1.0568,.5394-2.6581,1.1824-4.9618,1.7843-4.3417,1.1344-9.8372,1.7591-15.4742,1.7591s-11.1325-.6247-15.4742-1.7591c-2.3037-.6019-3.905-1.2449-4.9618-1.7843,1.0569-.5393,2.6581-1.1824,4.9618-1.7843Z" fill="#1274cc"/><path d="M116.8267,54.4938c-5.3595,1.7865-12.4484,2.7704-19.9612,2.7704s-14.6017-.9839-19.961-2.7704c-3.7563-1.252-6.0593-2.6864-7.4351-4.0988v14.747c0,5.0436,12.2656,9.1321,27.3962,9.1321s27.3962-4.0885,27.3962-9.1321v-14.747c-1.3757,1.4123-3.6788,2.8467-7.4351,4.0988Z" fill="#1274cc"/></g><g><path d="M116.8267,300.2674c-5.3595,1.7865-12.4484,2.7703-19.9612,2.7703s-14.6017-.9838-19.961-2.7703c-3.7563-1.252-6.0593-2.6864-7.4351-4.0989v12.5798c1.029,0,1.8629,.8341,1.8629,1.863,0,2.9639,9.9466,7.2691,25.5332,7.2691s25.5334-4.3052,25.5334-7.2691c0-1.0289,.8339-1.863,1.8628-1.863v-12.5798c-1.3757,1.4125-3.6788,2.8469-7.4351,4.0989Z" fill="#1274cc"/><path d="M71.3323,292.0427c0,2.9639,9.9466,7.2691,25.5332,7.2691s25.5334-4.3052,25.5334-7.2691c0-1.0289,.8339-1.863,1.8628-1.863v-16.7055c0-5.0434-12.2657-9.132-27.3962-9.132s-27.3962,4.0886-27.3962,9.132v16.7055c1.029,0,1.8629,.8341,1.8629,1.863Zm10.0591-20.3528c4.3417-1.1343,9.8372-1.7591,15.4742-1.7591s11.1324,.6248,15.4742,1.7591c2.3037,.6019,3.9049,1.245,4.9618,1.7843-1.0568,.5394-2.6581,1.1824-4.9618,1.7843-4.3417,1.1344-9.8372,1.7591-15.4742,1.7591s-11.1325-.6247-15.4742-1.7591c-2.3037-.6019-3.905-1.2449-4.9618-1.7843,1.0569-.5393,2.6581-1.1824,4.9618-1.7843Z" fill="#1274cc"/><path d="M116.8267,318.8359c-5.3595,1.7865-12.4484,2.7704-19.9612,2.7704s-14.6017-.9839-19.961-2.7704c-3.7563-1.252-6.0593-2.6864-7.4351-4.0988v14.747c0,5.0436,12.2656,9.1321,27.3962,9.1321s27.3962-4.0885,27.3962-9.1321v-14.747c-1.3757,1.4123-3.6788,2.8467-7.4351,4.0988Z" fill="#1274cc"/></g></g></g><rect x="264.7662" y="167.2744" width="70.4246" height="3.8233" fill="#aaa"/><rect x="62.5615" y="167.2744" width="74.7143" height="3.8233" fill="#aaa"/><rect x="118.1348" y="86.2619" width="34.6288" height="3.8233" transform="translate(127.2912 -73.2406) rotate(54.0437)" fill="#aaa"/><rect x="247.4518" y="87.5003" width="34.6288" height="3.8233" transform="translate(492.6043 -72.4073) rotate(125.9563)" fill="#aaa"/><rect x="117.1348" y="248.5253" width="34.6288" height="3.8233" transform="translate(-147.215 212.2204) rotate(-54.0437)" fill="#aaa"/><rect x="246.4518" y="247.2869" width="34.6288" height="3.8233" transform="translate(216.9237 609.0295) rotate(-125.9563)" fill="#aaa"/></svg>